 <svg width="512" height="256" viewBox="0 0 512 256" fill="none" xmlns="http://www.w3.org/2000/svg">
<g clip-path="url(#clip0_172_207828)">
<g clip-path="url(#clip1_172_207828)">
<g clip-path="url(#clip2_172_207828)">
<mask id="mask0_172_207828" style="mask-type:alpha" maskUnits="userSpaceOnUse" x="0" y="0" width="512" height="256">
<rect width="512" height="256" fill="white"/>
</mask>
<g mask="url(#mask0_172_207828)">
<rect width="512" height="256" fill="#F1F1F1"/>
<rect x="512" y="256" width="512" height="64.1662" transform="rotate(180 512 256)" fill="url(#paint0_linear_172_207828)"/>
<rect y="128" width="512" height="64.1662" fill="url(#paint1_linear_172_207828)"/>
<g filter="url(#filter0_b_172_207828)">
<rect width="512" height="256" fill="#777777" fill-opacity="0.01"/>
</g>
<rect width="512" height="254" fill="url(#paint2_linear_172_207828)"/>
<g filter="url(#filter1_dd_172_207828)">
<path d="M123 20.8729C123 15.9724 126.973 11.9999 131.873 11.9999H657.127C662.027 11.9999 666 15.9724 666 20.8729V256.127C666 261.027 662.027 265 657.127 265H131.873C126.973 265 123 261.027 123 256.127V20.8729Z" fill="url(#paint3_linear_172_207828)"/>
<path d="M657.127 11.4999H131.873C126.696 11.4999 122.5 15.6963 122.5 20.8729V256.127C122.5 261.303 126.696 265.5 131.873 265.5H657.127C662.304 265.5 666.5 261.303 666.5 256.127V20.8729C666.5 15.6963 662.304 11.4999 657.127 11.4999Z" stroke="white" stroke-opacity="0.2"/>
<g filter="url(#filter2_b_172_207828)">
<path d="M137.776 25.2162C137.776 22.766 139.76 20.7797 142.207 20.7797H331.701C334.148 20.7797 336.132 22.766 336.132 25.2162V46.0045C336.132 48.4545 338.116 50.4409 340.562 50.4409H647.984V268.181H122.999V50.4409H133.345C135.792 50.4409 137.776 48.4545 137.776 46.0045V25.2162Z" fill="#3B3B3B" fill-opacity="0.85"/>
</g>
<path d="M167.76 28.9366C167.482 27.8206 166.607 26.9525 165.534 26.6218C163.587 26.0845 155.757 26.0845 155.757 26.0845C155.757 26.0845 147.967 26.0845 146.019 26.6218C144.946 26.9112 144.111 27.7792 143.793 28.9366C143.277 30.9621 143.277 35.1783 143.277 35.1783C143.277 35.1783 143.277 39.3945 143.793 41.4199C144.111 42.5773 144.946 43.4454 146.019 43.7347C147.967 44.2721 155.797 44.2721 155.797 44.2721C155.797 44.2721 163.626 44.2721 165.574 43.7347C166.647 43.4454 167.482 42.5773 167.8 41.4199C168.277 39.4358 168.277 35.1783 168.277 35.1783C168.277 35.1783 168.277 30.9621 167.76 28.9366Z" fill="#FF0000"/>
<path d="M153.293 31.2927V39.1051L159.771 35.1783L153.293 31.2927Z" fill="white"/>
<rect x="174.277" y="31.1844" width="152" height="8" rx="4" fill="white" fill-opacity="0.2"/>
<path opacity="0.95" d="M157.497 51.0887C157.546 50.2617 156.916 49.5516 156.089 49.5026C155.262 49.4537 154.552 50.0844 154.503 50.9113L157.497 51.0887ZM234.5 127L234.688 125.512L234.5 127ZM319.439 202.561C320.025 203.146 320.975 203.146 321.561 202.561L331.107 193.015C331.693 192.429 331.693 191.479 331.107 190.893C330.521 190.308 329.571 190.308 328.985 190.893L320.5 199.379L312.015 190.893C311.429 190.308 310.479 190.308 309.894 190.893C309.308 191.479 309.308 192.429 309.894 193.015L319.439 202.561ZM154.503 50.9113C153.736 63.8569 156.678 81.1266 168.388 96.2508C180.121 111.405 200.517 124.226 234.312 128.488L234.688 125.512C201.514 121.328 181.91 108.815 170.76 94.4142C159.587 79.9834 156.764 63.4764 157.497 51.0887L154.503 50.9113ZM234.312 128.488C248.203 130.24 260.442 131.826 271.024 134.198C281.602 136.57 290.411 139.704 297.471 144.491C311.438 153.963 319 170.224 319 201.5H322C322 169.776 314.312 152.287 299.154 142.009C291.652 136.921 282.429 133.68 271.68 131.271C260.933 128.862 248.547 127.26 234.688 125.512L234.312 128.488Z" fill="url(#paint4_linear_172_207828)"/>
</g>
</g>
</g>
</g>
<g clip-path="url(#clip3_172_207828)">
<rect x="-244" y="209" width="1920" height="47" fill="url(#paint5_radial_172_207828)"/>
<rect x="-243.5" y="208.5" width="1919" height="47" stroke="black" stroke-opacity="0.0578"/>
<g clip-path="url(#clip4_172_207828)">
<path d="M406.664 234C406.664 233.818 406.729 233.661 406.859 233.531L411.531 228.859C411.661 228.729 411.818 228.664 412 228.664C412.182 228.664 412.339 228.729 412.469 228.859L417.141 233.531C417.271 233.661 417.336 233.818 417.336 234C417.336 234.188 417.268 234.346 417.133 234.477C417.003 234.602 416.846 234.664 416.664 234.664C416.482 234.664 416.326 234.599 416.195 234.469L412 230.273L407.805 234.469C407.674 234.599 407.518 234.664 407.336 234.664C407.154 234.664 406.995 234.602 406.859 234.477C406.729 234.346 406.664 234.188 406.664 234Z" fill="white"/>
</g>
<g clip-path="url(#clip5_172_207828)">
<path d="M444 227C443.438 227 442.88 227.057 442.328 227.172C441.781 227.281 441.25 227.445 440.734 227.664C440.219 227.878 439.727 228.141 439.258 228.453C438.789 228.766 438.357 229.122 437.961 229.523C437.763 229.721 437.586 229.93 437.43 230.148C437.273 230.362 437.107 230.573 436.93 230.781C436.867 230.854 436.807 230.909 436.75 230.945C436.693 230.982 436.615 231 436.516 231C436.375 231 436.255 230.953 436.156 230.859C436.062 230.76 436.016 230.641 436.016 230.5C436.016 230.401 436.044 230.307 436.102 230.219C436.513 229.562 437.01 228.974 437.594 228.453C438.182 227.932 438.823 227.49 439.516 227.125C440.208 226.76 440.935 226.482 441.695 226.289C442.461 226.096 443.229 226 444 226C444.766 226 445.531 226.096 446.297 226.289C447.062 226.482 447.789 226.76 448.477 227.125C449.169 227.49 449.807 227.932 450.391 228.453C450.979 228.974 451.482 229.562 451.898 230.219C451.956 230.307 451.984 230.401 451.984 230.5C451.984 230.641 451.935 230.76 451.836 230.859C451.742 230.953 451.625 231 451.484 231C451.396 231 451.318 230.982 451.25 230.945C451.188 230.904 451.128 230.849 451.07 230.781C451.013 230.708 450.958 230.635 450.906 230.562C450.859 230.484 450.807 230.409 450.75 230.336C450.641 230.19 450.526 230.052 450.406 229.922C450.286 229.786 450.164 229.654 450.039 229.523C449.638 229.122 449.203 228.766 448.734 228.453C448.271 228.141 447.781 227.878 447.266 227.664C446.755 227.445 446.224 227.281 445.672 227.172C445.12 227.057 444.562 227 444 227ZM444 230C443.615 230 443.232 230.042 442.852 230.125C442.471 230.208 442.104 230.331 441.75 230.492C441.401 230.648 441.068 230.841 440.75 231.07C440.438 231.299 440.154 231.557 439.898 231.844C439.773 231.984 439.659 232.133 439.555 232.289C439.456 232.445 439.349 232.599 439.234 232.75C439.172 232.828 439.109 232.891 439.047 232.938C438.99 232.979 438.909 233 438.805 233C438.669 233 438.552 232.951 438.453 232.852C438.354 232.753 438.305 232.635 438.305 232.5C438.305 232.417 438.326 232.333 438.367 232.25C438.633 231.755 438.971 231.307 439.383 230.906C439.794 230.505 440.25 230.164 440.75 229.883C441.25 229.602 441.776 229.385 442.328 229.234C442.885 229.078 443.443 229 444 229C444.552 229 445.107 229.078 445.664 229.234C446.221 229.385 446.75 229.602 447.25 229.883C447.75 230.164 448.206 230.505 448.617 230.906C449.029 231.307 449.367 231.755 449.633 232.25C449.674 232.333 449.695 232.417 449.695 232.5C449.695 232.635 449.646 232.753 449.547 232.852C449.448 232.951 449.331 233 449.195 233C449.091 233 449.008 232.979 448.945 232.938C448.888 232.891 448.828 232.828 448.766 232.75C448.651 232.599 448.542 232.445 448.438 232.289C448.339 232.133 448.227 231.984 448.102 231.844C447.846 231.557 447.56 231.299 447.242 231.07C446.93 230.841 446.596 230.648 446.242 230.492C445.893 230.331 445.529 230.208 445.148 230.125C444.768 230.042 444.385 230 444 230ZM444 233C443.708 233 443.43 233.042 443.164 233.125C442.898 233.203 442.641 233.318 442.391 233.469C442.25 233.557 442.128 233.646 442.023 233.734C441.924 233.823 441.833 233.917 441.75 234.016C441.672 234.115 441.596 234.221 441.523 234.336C441.451 234.445 441.372 234.57 441.289 234.711C441.237 234.799 441.174 234.87 441.102 234.922C441.029 234.974 440.94 235 440.836 235C440.695 235 440.576 234.951 440.477 234.852C440.383 234.753 440.336 234.633 440.336 234.492C440.336 234.424 440.352 234.354 440.383 234.281C440.534 233.948 440.74 233.641 441 233.359C441.26 233.078 441.552 232.839 441.875 232.641C442.198 232.438 442.542 232.281 442.906 232.172C443.271 232.057 443.635 232 444 232C444.375 232 444.745 232.055 445.109 232.164C445.474 232.273 445.815 232.427 446.133 232.625C446.456 232.823 446.745 233.062 447 233.344C447.255 233.625 447.461 233.938 447.617 234.281C447.648 234.354 447.664 234.424 447.664 234.492C447.664 234.628 447.615 234.747 447.516 234.852C447.417 234.951 447.299 235 447.164 235C447.06 235 446.971 234.974 446.898 234.922C446.826 234.87 446.763 234.799 446.711 234.711C446.628 234.57 446.549 234.445 446.477 234.336C446.404 234.221 446.326 234.115 446.242 234.016C446.159 233.917 446.065 233.823 445.961 233.734C445.862 233.646 445.742 233.557 445.602 233.469C445.357 233.318 445.099 233.203 444.828 233.125C444.562 233.042 444.286 233 444 233ZM442.75 236C442.75 235.828 442.784 235.667 442.852 235.516C442.919 235.365 443.008 235.234 443.117 235.125C443.232 235.01 443.365 234.919 443.516 234.852C443.667 234.784 443.828 234.75 444 234.75C444.172 234.75 444.333 234.784 444.484 234.852C444.635 234.919 444.766 235.01 444.875 235.125C444.99 235.234 445.081 235.365 445.148 235.516C445.216 235.667 445.25 235.828 445.25 236C445.25 236.172 445.216 236.333 445.148 236.484C445.081 236.635 444.99 236.768 444.875 236.883C444.766 236.992 444.635 237.081 444.484 237.148C444.333 237.216 444.172 237.25 444 237.25C443.828 237.25 443.667 237.216 443.516 237.148C443.365 237.081 443.232 236.992 443.117 236.883C443.008 236.768 442.919 236.635 442.852 236.484C442.784 236.333 442.75 236.172 442.75 236Z" fill="white"/>
</g>
<g clip-path="url(#clip6_172_207828)">
<g clip-path="url(#clip7_172_207828)">
<path d="M472 238.242C472 238.154 472.016 238.083 472.047 238.031C472.083 237.974 472.13 237.914 472.188 237.852C472.26 237.779 472.339 237.711 472.422 237.648C472.505 237.581 472.586 237.51 472.664 237.438C473.039 237.094 473.372 236.714 473.664 236.297C473.956 235.875 474.201 235.43 474.398 234.961C474.596 234.492 474.745 234.008 474.844 233.508C474.948 233.008 475 232.505 475 232C475 231.5 474.948 231 474.844 230.5C474.745 229.995 474.594 229.508 474.391 229.039C474.193 228.565 473.948 228.117 473.656 227.695C473.37 227.273 473.039 226.893 472.664 226.555C472.586 226.482 472.505 226.414 472.422 226.352C472.339 226.284 472.26 226.214 472.188 226.141C472.125 226.078 472.078 226.021 472.047 225.969C472.016 225.917 472 225.844 472 225.75C472 225.609 472.047 225.492 472.141 225.398C472.24 225.305 472.359 225.258 472.5 225.258C472.562 225.258 472.617 225.268 472.664 225.289C472.711 225.305 472.76 225.331 472.812 225.367C473.047 225.518 473.279 225.711 473.508 225.945C473.737 226.18 473.953 226.432 474.156 226.703C474.365 226.969 474.555 227.242 474.727 227.523C474.898 227.805 475.044 228.07 475.164 228.32C475.44 228.898 475.648 229.497 475.789 230.117C475.93 230.732 476 231.359 476 232C476 232.635 475.93 233.266 475.789 233.891C475.648 234.51 475.44 235.107 475.164 235.68C475.044 235.924 474.898 236.19 474.727 236.477C474.555 236.758 474.365 237.034 474.156 237.305C473.948 237.57 473.729 237.82 473.5 238.055C473.271 238.289 473.042 238.482 472.812 238.633C472.755 238.669 472.703 238.698 472.656 238.719C472.615 238.734 472.562 238.742 472.5 238.742C472.365 238.742 472.247 238.693 472.148 238.594C472.049 238.495 472 238.378 472 238.242ZM463.297 235H461.5C461.297 235 461.104 234.961 460.922 234.883C460.74 234.805 460.578 234.698 460.438 234.562C460.302 234.422 460.195 234.26 460.117 234.078C460.039 233.896 460 233.703 460 233.5V230.5C460 230.297 460.039 230.104 460.117 229.922C460.195 229.74 460.302 229.581 460.438 229.445C460.578 229.305 460.74 229.195 460.922 229.117C461.104 229.039 461.297 229 461.5 229H463.297L465.719 226.57C465.792 226.497 465.872 226.445 465.961 226.414C466.055 226.378 466.151 226.359 466.25 226.359C466.464 226.359 466.641 226.43 466.781 226.57C466.927 226.711 467 226.888 467 227.102V236.898C467 237.003 466.979 237.099 466.938 237.188C466.901 237.276 466.846 237.357 466.773 237.43C466.706 237.497 466.625 237.552 466.531 237.594C466.443 237.63 466.349 237.648 466.25 237.648C466.042 237.648 465.865 237.576 465.719 237.43L463.297 235ZM470.031 236.445C470.031 236.357 470.044 236.289 470.07 236.242C470.102 236.195 470.146 236.138 470.203 236.07C470.49 235.747 470.745 235.438 470.969 235.141C471.193 234.844 471.38 234.539 471.531 234.227C471.682 233.909 471.797 233.57 471.875 233.211C471.958 232.852 472 232.448 472 232C472 231.552 471.958 231.148 471.875 230.789C471.797 230.43 471.682 230.094 471.531 229.781C471.38 229.464 471.193 229.156 470.969 228.859C470.745 228.562 470.49 228.253 470.203 227.93C470.146 227.862 470.102 227.805 470.07 227.758C470.044 227.711 470.031 227.643 470.031 227.555C470.031 227.419 470.081 227.305 470.18 227.211C470.284 227.112 470.404 227.062 470.539 227.062C470.617 227.062 470.677 227.073 470.719 227.094C470.76 227.109 470.812 227.141 470.875 227.188C471.031 227.307 471.185 227.456 471.336 227.633C471.492 227.805 471.638 227.99 471.773 228.188C471.914 228.385 472.042 228.589 472.156 228.797C472.271 229 472.367 229.193 472.445 229.375C472.815 230.208 473 231.083 473 232C473 232.917 472.815 233.792 472.445 234.625C472.372 234.792 472.276 234.982 472.156 235.195C472.042 235.404 471.914 235.612 471.773 235.82C471.633 236.023 471.484 236.214 471.328 236.391C471.177 236.568 471.026 236.708 470.875 236.812C470.818 236.849 470.763 236.88 470.711 236.906C470.664 236.927 470.607 236.938 470.539 236.938C470.404 236.938 470.284 236.891 470.18 236.797C470.081 236.698 470.031 236.581 470.031 236.445ZM466 236.289V227.703L463.852 229.852C463.753 229.951 463.635 230 463.5 230H461.5C461.365 230 461.247 230.049 461.148 230.148C461.049 230.247 461 230.365 461 230.5V233.5C461 233.635 461.049 233.753 461.148 233.852C461.247 233.951 461.365 234 461.5 234H463.5C463.635 234 463.753 234.049 463.852 234.148L466 236.289ZM468.094 234.539C468.094 234.466 468.102 234.409 468.117 234.367C468.138 234.326 468.169 234.276 468.211 234.219C468.331 234.036 468.44 233.862 468.539 233.695C468.638 233.523 468.721 233.352 468.789 233.18C468.857 233.003 468.909 232.82 468.945 232.633C468.982 232.44 469 232.229 469 232C469 231.776 468.982 231.568 468.945 231.375C468.909 231.182 468.857 231 468.789 230.828C468.721 230.651 468.638 230.479 468.539 230.312C468.44 230.141 468.331 229.964 468.211 229.781C468.169 229.724 468.138 229.674 468.117 229.633C468.102 229.591 468.094 229.534 468.094 229.461C468.094 229.326 468.143 229.208 468.242 229.109C468.341 229.01 468.458 228.961 468.594 228.961C468.682 228.961 468.755 228.977 468.812 229.008C468.87 229.039 468.927 229.086 468.984 229.148C469.151 229.331 469.297 229.536 469.422 229.766C469.547 229.99 469.651 230.229 469.734 230.484C469.823 230.734 469.888 230.99 469.93 231.25C469.977 231.51 470 231.76 470 232C470 232.229 469.977 232.477 469.93 232.742C469.888 233.003 469.823 233.263 469.734 233.523C469.651 233.779 469.544 234.023 469.414 234.258C469.289 234.487 469.146 234.685 468.984 234.852C468.875 234.971 468.745 235.031 468.594 235.031C468.458 235.031 468.341 234.984 468.242 234.891C468.143 234.792 468.094 234.674 468.094 234.539Z" fill="white"/>
</g>
</g>
<path d="M500 232.5C500 232.776 499.901 233.013 499.703 233.211C499.51 233.404 499.276 233.5 499 233.5H498V234.555C498 234.883 497.932 235.195 497.797 235.492C497.667 235.789 497.49 236.049 497.266 236.273C497.047 236.492 496.789 236.669 496.492 236.805C496.195 236.935 495.883 237 495.555 237H486.445C486.117 237 485.805 236.935 485.508 236.805C485.211 236.669 484.951 236.492 484.727 236.273C484.508 236.049 484.331 235.789 484.195 235.492C484.065 235.195 484 234.883 484 234.555V229.445C484 229.117 484.065 228.805 484.195 228.508C484.331 228.211 484.508 227.953 484.727 227.734C484.951 227.51 485.211 227.333 485.508 227.203C485.805 227.068 486.117 227 486.445 227H495.555C495.888 227 496.201 227.065 496.492 227.195C496.789 227.326 497.047 227.503 497.266 227.727C497.484 227.951 497.659 228.211 497.789 228.508C497.919 228.805 497.99 229.117 498 229.445V229.797V230.5H499C499.135 230.5 499.263 230.526 499.383 230.578C499.503 230.63 499.609 230.703 499.703 230.797C499.797 230.891 499.87 230.997 499.922 231.117C499.974 231.237 500 231.365 500 231.5V232.5ZM497 229.5C497 229.297 496.961 229.104 496.883 228.922C496.805 228.74 496.695 228.581 496.555 228.445C496.419 228.305 496.26 228.195 496.078 228.117C495.896 228.039 495.703 228 495.5 228H486.5C486.297 228 486.104 228.039 485.922 228.117C485.74 228.195 485.578 228.305 485.438 228.445C485.302 228.581 485.195 228.74 485.117 228.922C485.039 229.104 485 229.297 485 229.5V234.5C485 234.703 485.039 234.896 485.117 235.078C485.195 235.26 485.302 235.422 485.438 235.562C485.578 235.698 485.74 235.805 485.922 235.883C486.104 235.961 486.297 236 486.5 236H495.5C495.703 236 495.896 235.961 496.078 235.883C496.26 235.805 496.419 235.698 496.555 235.562C496.695 235.422 496.805 235.26 496.883 235.078C496.961 234.896 497 234.703 497 234.5V229.5ZM492.25 229C492.458 229 492.635 229.073 492.781 229.219C492.927 229.365 493 229.542 493 229.75V234.25C493 234.458 492.927 234.635 492.781 234.781C492.635 234.927 492.458 235 492.25 235H486.75C486.542 235 486.365 234.927 486.219 234.781C486.073 234.635 486 234.458 486 234.25V229.75C486 229.542 486.073 229.365 486.219 229.219C486.365 229.073 486.542 229 486.75 229H492.25Z" fill="white"/>
<g clip-path="url(#clip8_172_207828)">
<path fill-rule="evenodd" clip-rule="evenodd" d="M13.5 221C12.9477 221 12.5 221.448 12.5 222V232H23.5V221H13.5ZM34.5 221H24.5V232H35.5V222C35.5 221.448 35.0523 221 34.5 221ZM24.5 233H35.5V243C35.5 243.552 35.0523 244 34.5 244H24.5V233ZM23.5 233H12.5V243C12.5 243.552 12.9477 244 13.5 244H23.5V233Z" fill="url(#paint6_linear_172_207828)"/>
</g>
<rect x="47.5" y="217" width="163" height="30" rx="15" fill="white" fill-opacity="0.3"/>
<rect x="47" y="216.5" width="164" height="31" rx="15.5" stroke="black" stroke-opacity="0.1"/>
<g clip-path="url(#clip9_172_207828)">
<path opacity="0.3" d="M64.0883 236C61.1863 236 58.8334 233.647 58.8334 230.667C58.8334 227.686 61.1863 225.333 64.1667 225.333C67.0687 225.333 69.5 227.686 69.5 230.667C69.5 233.647 67.0687 236 64.0883 236Z" fill="url(#paint7_linear_172_207828)"/>
<g filter="url(#filter3_i_172_207828)">
<path fill-rule="evenodd" clip-rule="evenodd" d="M64.1666 224C60.5107 224 57.5 226.939 57.5 230.667C57.5 234.323 60.439 237.333 64.1666 237.333C65.6635 237.333 67.0332 236.859 68.1365 236.051L71.4596 239.374C71.8501 239.764 72.4832 239.764 72.8738 239.374C73.2643 238.983 73.2643 238.35 72.8738 237.96L69.5507 234.636C70.3593 233.533 70.8332 232.163 70.8332 230.667C70.8332 226.939 67.8942 224 64.1666 224ZM64.0952 235.525C61.4516 235.525 59.3081 233.382 59.3081 230.667C59.3081 227.952 61.4516 225.808 64.1666 225.808C66.8102 225.808 69.0251 227.952 69.0251 230.667C69.0251 233.382 66.8102 235.525 64.0952 235.525Z" fill="url(#paint8_linear_172_207828)"/>
</g>
</g>
<g clip-path="url(#clip10_172_207828)">
<path d="M244.321 224H231.025L230.133 222.885C229.912 222.609 229.632 222.386 229.314 222.233C228.995 222.08 228.646 222 228.292 222H222.689C222.376 222 222.077 222.124 221.856 222.345C221.635 222.566 221.511 222.866 221.51 223.179V224H221.5V240.836C221.502 241.147 221.627 241.444 221.848 241.662C222.069 241.88 222.368 242.002 222.679 242H244.321C244.632 242.002 244.931 241.88 245.152 241.662C245.373 241.444 245.498 241.147 245.5 240.836V225.164C245.498 224.853 245.373 224.556 245.152 224.338C244.931 224.12 244.632 223.998 244.321 224Z" fill="url(#paint9_linear_172_207828)"/>
<mask id="mask1_172_207828" style="mask-type:alpha" maskUnits="userSpaceOnUse" x="221" y="222" width="25" height="20">
<path d="M244.321 224H231.025L230.133 222.885C229.912 222.609 229.632 222.386 229.314 222.233C228.995 222.08 228.646 222 228.292 222H222.689C222.376 222 222.077 222.124 221.856 222.345C221.635 222.566 221.511 222.866 221.51 223.179V224H221.5V240.836C221.502 241.147 221.627 241.444 221.848 241.662C222.069 241.88 222.368 242.002 222.679 242H244.321C244.632 242.002 244.931 241.88 245.152 241.662C245.373 241.444 245.498 241.147 245.5 240.836V225.164C245.498 224.853 245.373 224.556 245.152 224.338C244.931 224.12 244.632 223.998 244.321 224Z" fill="url(#paint10_linear_172_207828)"/>
</mask>
<g mask="url(#mask1_172_207828)">
<g filter="url(#filter4_dd_172_207828)">
<path d="M242 226H223C222.172 226 221.5 226.672 221.5 227.5V231.5C221.5 232.328 222.172 233 223 233H242C242.828 233 243.5 232.328 243.5 231.5V227.5C243.5 226.672 242.828 226 242 226Z" fill="#C4C4C4"/>
</g>
</g>
<path d="M231.801 225C231.408 224.992 231.024 225.109 230.702 225.333C230.105 225.768 229.385 226.003 228.646 226.003H222.679C222.366 226.003 222.066 226.127 221.845 226.348C221.624 226.569 221.5 226.869 221.5 227.182V241.822C221.5 242.134 221.624 242.434 221.845 242.655C222.066 242.876 222.366 243 222.679 243H244.321C244.634 243 244.934 242.876 245.155 242.655C245.376 242.434 245.5 242.134 245.5 241.822V226.179C245.5 226.024 245.47 225.871 245.41 225.728C245.351 225.585 245.264 225.455 245.155 225.345C245.045 225.236 244.915 225.149 244.772 225.09C244.629 225.03 244.476 225 244.321 225H231.801Z" fill="url(#paint11_linear_172_207828)"/>
<path opacity="0.3" d="M244.322 225.001H231.805C231.422 224.988 231.045 225.097 230.728 225.312C230.084 225.787 229.297 226.031 228.497 226.004H222.679C222.524 226.004 222.371 226.035 222.228 226.094C222.085 226.153 221.955 226.24 221.845 226.349C221.736 226.459 221.649 226.589 221.59 226.732C221.53 226.875 221.5 227.028 221.5 227.183V228.183C221.5 228.028 221.53 227.875 221.59 227.732C221.649 227.589 221.736 227.459 221.845 227.349C221.955 227.24 222.085 227.153 222.228 227.094C222.371 227.035 222.524 227.004 222.679 227.004H228.672C229.521 227.012 230.353 226.771 231.066 226.31C231.38 226.102 231.75 225.994 232.127 226.001H244.321C244.476 226.001 244.629 226.031 244.772 226.091C244.915 226.15 245.045 226.237 245.155 226.346C245.264 226.456 245.351 226.586 245.41 226.729C245.47 226.872 245.5 227.025 245.5 227.18V226.18C245.5 226.025 245.47 225.872 245.41 225.729C245.351 225.586 245.264 225.456 245.155 225.346C245.045 225.237 244.915 225.15 244.773 225.091C244.63 225.031 244.476 225.001 244.322 225.001V225.001Z" fill="url(#paint12_linear_172_207828)"/>
<mask id="mask2_172_207828" style="mask-type:alpha" maskUnits="userSpaceOnUse" x="221" y="224" width="25" height="19">
<path d="M231.801 225C231.408 224.992 231.024 225.109 230.702 225.333C230.105 225.768 229.385 226.003 228.646 226.003H222.679C222.366 226.003 222.066 226.127 221.845 226.348C221.624 226.569 221.5 226.869 221.5 227.182V241.822C221.5 242.134 221.624 242.434 221.845 242.655C222.066 242.876 222.366 243 222.679 243H244.321C244.634 243 244.934 242.876 245.155 242.655C245.376 242.434 245.5 242.134 245.5 241.822V226.179C245.5 226.024 245.47 225.871 245.41 225.728C245.351 225.585 245.264 225.455 245.155 225.345C245.045 225.236 244.915 225.149 244.772 225.09C244.629 225.03 244.476 225 244.321 225H231.801Z" fill="url(#paint13_linear_172_207828)"/>
</mask>
<g mask="url(#mask2_172_207828)">
<g filter="url(#filter5_dd_172_207828)">
<path d="M228.5 236H238.5C239.296 236 240.059 236.316 240.621 236.879C241.184 237.441 241.5 238.204 241.5 239V243H225.5V239C225.5 238.204 225.816 237.441 226.379 236.879C226.941 236.316 227.704 236 228.5 236V236Z" fill="url(#paint14_linear_172_207828)"/>
</g>
</g>
<path d="M228.5 236H238.5C239.296 236 240.059 236.316 240.621 236.879C241.184 237.441 241.5 238.204 241.5 239V243H225.5V239C225.5 238.204 225.816 237.441 226.379 236.879C226.941 236.316 227.704 236 228.5 236V236Z" fill="url(#paint15_linear_172_207828)"/>
<path d="M238 239H229C228.724 239 228.5 239.224 228.5 239.5C228.5 239.776 228.724 240 229 240H238C238.276 240 238.5 239.776 238.5 239.5C238.5 239.224 238.276 239 238 239Z" fill="#114A8B"/>
</g>
<g style="mix-blend-mode:multiply" filter="url(#filter6_dd_172_207828)">
<rect x="259" y="213" width="38" height="38" rx="4" fill="white"/>
</g>
<rect x="259" y="213" width="38" height="38" rx="4" fill="white" fill-opacity="0.2"/>
<rect x="270" y="248" width="16" height="3" rx="1.5" fill="#60CDFF"/>
<g clip-path="url(#clip11_172_207828)">
<path d="M287.161 237.863C286.841 238.03 286.511 238.178 286.173 238.304C285.097 238.707 283.957 238.912 282.808 238.91C278.372 238.91 274.507 235.859 274.507 231.943C274.513 231.418 274.658 230.904 274.929 230.454C275.2 230.005 275.586 229.635 276.047 229.384C272.035 229.553 271.003 233.734 271.003 236.184C271.003 243.11 277.387 243.813 278.762 243.813C279.622 243.779 280.473 243.635 281.296 243.385C281.337 243.372 281.378 243.358 281.419 243.344C284.002 242.45 286.204 240.704 287.662 238.392C287.706 238.321 287.725 238.238 287.717 238.155C287.708 238.072 287.673 237.994 287.616 237.934C287.558 237.873 287.483 237.834 287.4 237.821C287.318 237.808 287.234 237.823 287.161 237.863Z" fill="url(#paint16_linear_172_207828)"/>
<path opacity="0.35" d="M287.161 237.863C286.841 238.03 286.511 238.178 286.173 238.304C285.097 238.707 283.957 238.912 282.808 238.91C278.372 238.91 274.507 235.859 274.507 231.943C274.513 231.418 274.658 230.904 274.929 230.454C275.2 230.005 275.586 229.635 276.047 229.384C272.035 229.553 271.003 233.734 271.003 236.184C271.003 243.11 277.387 243.813 278.762 243.813C279.622 243.779 280.473 243.635 281.296 243.385C281.337 243.372 281.378 243.358 281.419 243.344C284.002 242.45 286.204 240.704 287.662 238.392C287.706 238.321 287.725 238.238 287.717 238.155C287.708 238.072 287.673 237.994 287.616 237.934C287.558 237.873 287.483 237.834 287.4 237.821C287.318 237.808 287.234 237.823 287.161 237.863Z" fill="url(#paint17_radial_172_207828)"/>
<path d="M275.41 242.632C274.573 242.113 273.849 241.431 273.278 240.629C272.629 239.737 272.182 238.714 271.97 237.632C271.757 236.549 271.783 235.434 272.047 234.363C272.311 233.292 272.805 232.291 273.496 231.431C274.187 230.571 275.057 229.873 276.046 229.384C276.494 229.143 276.994 229.013 277.504 229.006C277.972 229.009 278.432 229.12 278.85 229.331C279.268 229.542 279.631 229.847 279.912 230.221C280.29 230.727 280.499 231.339 280.508 231.971C280.508 231.951 282.801 224.508 273.003 224.508C268.888 224.508 265.499 228.414 265.499 231.84C265.483 233.654 265.871 235.449 266.635 237.093C267.884 239.756 270.067 241.867 272.769 243.027C275.472 244.187 278.506 244.314 281.296 243.385C280.319 243.693 279.286 243.785 278.27 243.655C277.254 243.525 276.278 243.176 275.41 242.632V242.632Z" fill="url(#paint18_linear_172_207828)"/>
<path opacity="0.41" d="M275.41 242.632C274.573 242.113 273.849 241.431 273.278 240.629C272.629 239.737 272.182 238.714 271.97 237.632C271.757 236.549 271.783 235.434 272.047 234.363C272.311 233.292 272.805 232.291 273.496 231.431C274.187 230.571 275.057 229.873 276.046 229.384C276.494 229.143 276.994 229.013 277.504 229.006C277.972 229.009 278.432 229.12 278.85 229.331C279.268 229.542 279.631 229.847 279.912 230.221C280.29 230.727 280.499 231.339 280.508 231.971C280.508 231.951 282.801 224.508 273.003 224.508C268.888 224.508 265.499 228.414 265.499 231.84C265.483 233.654 265.871 235.449 266.635 237.093C267.884 239.756 270.067 241.867 272.769 243.027C275.472 244.187 278.506 244.314 281.296 243.385C280.319 243.693 279.286 243.785 278.27 243.655C277.254 243.525 276.278 243.176 275.41 242.632V242.632Z" fill="url(#paint19_radial_172_207828)"/>
<path d="M279.78 233.955C279.704 234.054 279.47 234.19 279.47 234.486C279.484 234.627 279.531 234.762 279.608 234.88C279.685 234.998 279.79 235.095 279.913 235.164C281.261 236.105 283.802 235.978 283.809 235.978C284.808 235.975 285.789 235.703 286.647 235.192C287.514 234.686 288.233 233.962 288.733 233.093C289.234 232.223 289.498 231.238 289.5 230.235C289.511 228.793 289.144 227.374 288.437 226.118C286.45 222.235 282.162 220 277.498 220C274.345 219.999 271.318 221.241 269.073 223.455C266.828 225.669 265.545 228.678 265.501 231.831C265.546 228.405 268.951 225.639 272.998 225.639C274.365 225.653 275.711 225.976 276.936 226.583C278.152 227.187 279.159 228.141 279.828 229.322C280.274 230.176 280.508 231.125 280.511 232.089C280.462 232.771 280.207 233.422 279.78 233.955V233.955Z" fill="url(#paint20_radial_172_207828)"/>
<path d="M279.78 233.955C279.704 234.054 279.47 234.19 279.47 234.486C279.484 234.627 279.531 234.762 279.608 234.88C279.685 234.998 279.79 235.095 279.913 235.164C281.261 236.105 283.802 235.978 283.809 235.978C284.808 235.975 285.789 235.703 286.647 235.192C287.514 234.686 288.233 233.962 288.733 233.093C289.234 232.223 289.498 231.238 289.5 230.235C289.511 228.793 289.144 227.374 288.437 226.118C286.45 222.235 282.162 220 277.498 220C274.345 219.999 271.318 221.241 269.073 223.455C266.828 225.669 265.545 228.678 265.501 231.831C265.546 228.405 268.951 225.639 272.998 225.639C274.365 225.653 275.711 225.976 276.936 226.583C278.152 227.187 279.159 228.141 279.828 229.322C280.274 230.176 280.508 231.125 280.511 232.089C280.462 232.771 280.207 233.422 279.78 233.955V233.955Z" fill="url(#paint21_radial_172_207828)"/>
</g>
</g>
<path d="M335.38 224.791C335.046 223.503 333.997 222.502 332.709 222.12C330.372 221.5 320.976 221.5 320.976 221.5C320.976 221.5 311.628 221.5 309.291 222.12C308.003 222.454 307.002 223.455 306.62 224.791C306 227.128 306 231.993 306 231.993C306 231.993 306 236.858 306.62 239.195C307.002 240.53 308.003 241.532 309.291 241.866C311.628 242.486 321.024 242.486 321.024 242.486C321.024 242.486 330.42 242.486 332.757 241.866C334.045 241.532 335.046 240.53 335.428 239.195C336 236.905 336 231.993 336 231.993C336 231.993 336 227.128 335.38 224.791Z" fill="#FF0000"/>
<path d="M318.019 227.509V236.524L325.793 231.993L318.019 227.509Z" fill="white"/>
</g>
<defs>
<filter id="filter0_b_172_207828" x="-45.8908" y="-45.8908" width="603.782" height="347.782" filterUnits="userSpaceOnUse" color-interpolation-filters="sRGB">
<feFlood flood-opacity="0" result="BackgroundImageFix"/>
<feGaussianBlur in="BackgroundImageFix" stdDeviation="22.9454"/>
<feComposite in2="SourceAlpha" operator="in" result="effect1_backgroundBlur_172_207828"/>
<feBlend mode="normal" in="SourceGraphic" in2="effect1_backgroundBlur_172_207828" result="shape"/>
</filter>
<filter id="filter1_dd_172_207828" x="40.383" y="-29.8086" width="708.234" height="420.415" filterUnits="userSpaceOnUse" color-interpolation-filters="sRGB">
<feFlood flood-opacity="0" result="BackgroundImageFix"/>
<feColorMatrix in="SourceAlpha" type="matrix" values="0 0 0 0 0 0 0 0 0 0 0 0 0 0 0 0 0 0 127 0" result="hardAlpha"/>
<feOffset dy="40.8085"/>
<feGaussianBlur stdDeviation="40.8085"/>
<feColorMatrix type="matrix" values="0 0 0 0 0 0 0 0 0 0 0 0 0 0 0 0 0 0 0.19 0"/>
<feBlend mode="multiply" in2="BackgroundImageFix" result="effect1_dropShadow_172_207828"/>
<feColorMatrix in="SourceAlpha" type="matrix" values="0 0 0 0 0 0 0 0 0 0 0 0 0 0 0 0 0 0 127 0" result="hardAlpha"/>
<feOffset dy="2.55053"/>
<feGaussianBlur stdDeviation="13.6326"/>
<feColorMatrix type="matrix" values="0 0 0 0 0 0 0 0 0 0 0 0 0 0 0 0 0 0 0.15 0"/>
<feBlend mode="multiply" in2="effect1_dropShadow_172_207828" result="effect2_dropShadow_172_207828"/>
<feBlend mode="normal" in="SourceGraphic" in2="effect2_dropShadow_172_207828" result="shape"/>
</filter>
<filter id="filter2_b_172_207828" x="105.253" y="3.0337" width="560.477" height="282.894" filterUnits="userSpaceOnUse" color-interpolation-filters="sRGB">
<feFlood flood-opacity="0" result="BackgroundImageFix"/>
<feGaussianBlur in="BackgroundImageFix" stdDeviation="8.87298"/>
<feComposite in2="SourceAlpha" operator="in" result="effect1_backgroundBlur_172_207828"/>
<feBlend mode="normal" in="SourceGraphic" in2="effect1_backgroundBlur_172_207828" result="shape"/>
</filter>
<filter id="filter3_i_172_207828" x="57.5" y="223.667" width="15.6666" height="16" filterUnits="userSpaceOnUse" color-interpolation-filters="sRGB">
<feFlood flood-opacity="0" result="BackgroundImageFix"/>
<feBlend mode="normal" in="SourceGraphic" in2="BackgroundImageFix" result="shape"/>
<feColorMatrix in="SourceAlpha" type="matrix" values="0 0 0 0 0 0 0 0 0 0 0 0 0 0 0 0 0 0 127 0" result="hardAlpha"/>
<feOffset dy="-0.333333"/>
<feGaussianBlur stdDeviation="0.25"/>
<feComposite in2="hardAlpha" operator="arithmetic" k2="-1" k3="1"/>
<feColorMatrix type="matrix" values="0 0 0 0 0 0 0 0 0 0 0 0 0 0 0 0 0 0 0.2 0"/>
<feBlend mode="normal" in2="shape" result="effect1_innerShadow_172_207828"/>
</filter>
<filter id="filter4_dd_172_207828" x="220" y="224.5" width="25" height="10" filterUnits="userSpaceOnUse" color-interpolation-filters="sRGB">
<feFlood flood-opacity="0" result="BackgroundImageFix"/>
<feColorMatrix in="SourceAlpha" type="matrix" values="0 0 0 0 0 0 0 0 0 0 0 0 0 0 0 0 0 0 127 0" result="hardAlpha"/>
<feOffset/>
<feGaussianBlur stdDeviation="0.25"/>
<feColorMatrix type="matrix" values="0 0 0 0 0 0 0 0 0 0 0 0 0 0 0 0 0 0 0.1 0"/>
<feBlend mode="normal" in2="BackgroundImageFix" result="effect1_dropShadow_172_207828"/>
<feColorMatrix in="SourceAlpha" type="matrix" values="0 0 0 0 0 0 0 0 0 0 0 0 0 0 0 0 0 0 127 0" result="hardAlpha"/>
<feOffset/>
<feGaussianBlur stdDeviation="0.75"/>
<feColorMatrix type="matrix" values="0 0 0 0 0 0 0 0 0 0 0 0 0 0 0 0 0 0 0.2 0"/>
<feBlend mode="normal" in2="effect1_dropShadow_172_207828" result="effect2_dropShadow_172_207828"/>
<feBlend mode="normal" in="SourceGraphic" in2="effect2_dropShadow_172_207828" result="shape"/>
</filter>
<filter id="filter5_dd_172_207828" x="224" y="234.5" width="19" height="10" filterUnits="userSpaceOnUse" color-interpolation-filters="sRGB">
<feFlood flood-opacity="0" result="BackgroundImageFix"/>
<feColorMatrix in="SourceAlpha" type="matrix" values="0 0 0 0 0 0 0 0 0 0 0 0 0 0 0 0 0 0 127 0" result="hardAlpha"/>
<feOffset/>
<feGaussianBlur stdDeviation="0.25"/>
<feColorMatrix type="matrix" values="0 0 0 0 0 0 0 0 0 0 0 0 0 0 0 0 0 0 0.1 0"/>
<feBlend mode="normal" in2="BackgroundImageFix" result="effect1_dropShadow_172_207828"/>
<feColorMatrix in="SourceAlpha" type="matrix" values="0 0 0 0 0 0 0 0 0 0 0 0 0 0 0 0 0 0 127 0" result="hardAlpha"/>
<feOffset/>
<feGaussianBlur stdDeviation="0.75"/>
<feColorMatrix type="matrix" values="0 0 0 0 0 0 0 0 0 0 0 0 0 0 0 0 0 0 0.2 0"/>
<feBlend mode="normal" in2="effect1_dropShadow_172_207828" result="effect2_dropShadow_172_207828"/>
<feBlend mode="normal" in="SourceGraphic" in2="effect2_dropShadow_172_207828" result="shape"/>
</filter>
<filter id="filter6_dd_172_207828" x="258" y="212" width="40" height="40" filterUnits="userSpaceOnUse" color-interpolation-filters="sRGB">
<feFlood flood-opacity="0" result="BackgroundImageFix"/>
<feColorMatrix in="SourceAlpha" type="matrix" values="0 0 0 0 0 0 0 0 0 0 0 0 0 0 0 0 0 0 127 0" result="hardAlpha"/>
<feOffset dy="1"/>
<feColorMatrix type="matrix" values="0 0 0 0 0 0 0 0 0 0 0 0 0 0 0 0 0 0 0.1044 0"/>
<feBlend mode="normal" in2="BackgroundImageFix" result="effect1_dropShadow_172_207828"/>
<feColorMatrix in="SourceAlpha" type="matrix" values="0 0 0 0 0 0 0 0 0 0 0 0 0 0 0 0 0 0 127 0" result="hardAlpha"/>
<feMorphology radius="1" operator="dilate" in="SourceAlpha" result="effect2_dropShadow_172_207828"/>
<feOffset/>
<feColorMatrix type="matrix" values="0 0 0 0 0 0 0 0 0 0 0 0 0 0 0 0 0 0 0.06 0"/>
<feBlend mode="normal" in2="effect1_dropShadow_172_207828" result="effect2_dropShadow_172_207828"/>
<feBlend mode="normal" in="SourceGraphic" in2="effect2_dropShadow_172_207828" result="shape"/>
</filter>
<linearGradient id="paint0_linear_172_207828" x1="768" y1="256" x2="768" y2="320.166" gradientUnits="userSpaceOnUse">
<stop stop-color="#F1F1F1" stop-opacity="0"/>
<stop offset="0.31473" stop-color="white" stop-opacity="0.25"/>
<stop offset="0.654813" stop-color="white" stop-opacity="0.75"/>
<stop offset="1" stop-color="white"/>
</linearGradient>
<linearGradient id="paint1_linear_172_207828" x1="256" y1="128" x2="256" y2="192.166" gradientUnits="userSpaceOnUse">
<stop stop-color="#F1F1F1" stop-opacity="0"/>
<stop offset="0.31473" stop-color="white" stop-opacity="0.25"/>
<stop offset="0.654813" stop-color="white" stop-opacity="0.75"/>
<stop offset="1" stop-color="white"/>
</linearGradient>
<linearGradient id="paint2_linear_172_207828" x1="0" y1="0" x2="309" y2="254" gradientUnits="userSpaceOnUse">
<stop stop-color="#031023"/>
<stop offset="1" stop-color="#102148"/>
</linearGradient>
<linearGradient id="paint3_linear_172_207828" x1="131.5" y1="23" x2="284" y2="179" gradientUnits="userSpaceOnUse">
<stop stop-color="#030913"/>
<stop offset="1" stop-color="#081548"/>
</linearGradient>
<linearGradient id="paint4_linear_172_207828" x1="169.904" y1="203.427" x2="301.003" y2="205.583" gradientUnits="userSpaceOnUse">
<stop stop-color="#8FA8C2"/>
<stop offset="1" stop-color="#79FFE4"/>
</linearGradient>
<radialGradient id="paint5_radial_172_207828" cx="0" cy="0" r="1" gradientUnits="userSpaceOnUse" gradientTransform="translate(3.18399e-05 209) rotate(6.10407) scale(442.006 18056.4)">
<stop stop-color="#162848"/>
<stop offset="0.0912492" stop-color="#072762"/>
<stop offset="1" stop-color="#202020"/>
</radialGradient>
<linearGradient id="paint6_linear_172_207828" x1="15.9852" y1="221" x2="30.97" y2="244" gradientUnits="userSpaceOnUse">
<stop stop-color="#4DD2FF"/>
<stop offset="0.75" stop-color="#0078D4"/>
</linearGradient>
<linearGradient id="paint7_linear_172_207828" x1="66.8338" y1="235.286" x2="61.4996" y2="226.047" gradientUnits="userSpaceOnUse">
<stop stop-color="#D5D8DD"/>
<stop offset="1" stop-color="white"/>
</linearGradient>
<linearGradient id="paint8_linear_172_207828" x1="69.4369" y1="239.667" x2="60.1117" y2="224.373" gradientUnits="userSpaceOnUse">
<stop stop-color="#EFEFEF"/>
<stop offset="1" stop-color="white"/>
</linearGradient>
<linearGradient id="paint9_linear_172_207828" x1="239.077" y1="242.66" x2="227.611" y2="222.8" gradientUnits="userSpaceOnUse">
<stop offset="0.1135" stop-color="#D18B00"/>
<stop offset="0.6162" stop-color="#E09F00"/>
</linearGradient>
<linearGradient id="paint10_linear_172_207828" x1="239.077" y1="242.66" x2="227.611" y2="222.8" gradientUnits="userSpaceOnUse">
<stop offset="0.1135" stop-color="#D18B00"/>
<stop offset="0.6162" stop-color="#E09F00"/>
</linearGradient>
<linearGradient id="paint11_linear_172_207828" x1="240.13" y1="245.483" x2="227.668" y2="223.899" gradientUnits="userSpaceOnUse">
<stop stop-color="#F5B300"/>
<stop offset="0.5" stop-color="#FFCB3C"/>
<stop offset="1" stop-color="#FFD762"/>
</linearGradient>
<linearGradient id="paint12_linear_172_207828" x1="221.5" y1="226.591" x2="245.5" y2="226.591" gradientUnits="userSpaceOnUse">
<stop stop-color="white"/>
<stop offset="1" stop-color="white" stop-opacity="0"/>
</linearGradient>
<linearGradient id="paint13_linear_172_207828" x1="240.13" y1="245.483" x2="227.668" y2="223.899" gradientUnits="userSpaceOnUse">
<stop stop-color="#F5B300"/>
<stop offset="0.5" stop-color="#FFCB3C"/>
<stop offset="1" stop-color="#FFD762"/>
</linearGradient>
<linearGradient id="paint14_linear_172_207828" x1="235.85" y1="244.669" x2="230.289" y2="235.036" gradientUnits="userSpaceOnUse">
<stop stop-color="#0062B4"/>
<stop offset="1" stop-color="#1493DF"/>
</linearGradient>
<linearGradient id="paint15_linear_172_207828" x1="235.85" y1="244.669" x2="230.289" y2="235.036" gradientUnits="userSpaceOnUse">
<stop stop-color="#0062B4"/>
<stop offset="1" stop-color="#1493DF"/>
</linearGradient>
<linearGradient id="paint16_linear_172_207828" x1="271.003" y1="236.598" x2="287.722" y2="236.598" gradientUnits="userSpaceOnUse">
<stop stop-color="#0C59A4"/>
<stop offset="1" stop-color="#114A8B"/>
</linearGradient>
<radialGradient id="paint17_radial_172_207828" cx="0" cy="0" r="1" gradientUnits="userSpaceOnUse" gradientTransform="translate(280.238 236.723) scale(8.94225 8.5047)">
<stop offset="0.71659" stop-opacity="0"/>
<stop offset="0.9459" stop-opacity="0.53"/>
<stop offset="1"/>
</radialGradient>
<linearGradient id="paint18_linear_172_207828" x1="279.817" y1="229.345" x2="269.374" y2="240.721" gradientUnits="userSpaceOnUse">
<stop stop-color="#1B9DE2"/>
<stop offset="0.16164" stop-color="#1595DF"/>
<stop offset="0.66749" stop-color="#0680D7"/>
<stop offset="1" stop-color="#0078D4"/>
</linearGradient>
<radialGradient id="paint19_radial_172_207828" cx="0" cy="0" r="1" gradientUnits="userSpaceOnUse" gradientTransform="translate(272.184 238.625) rotate(-81.464) scale(13.4283 10.8206)">
<stop offset="0.76293" stop-opacity="0"/>
<stop offset="0.9459" stop-opacity="0.5"/>
<stop offset="1"/>
</radialGradient>
<radialGradient id="paint20_radial_172_207828" cx="0" cy="0" r="1" gradientUnits="userSpaceOnUse" gradientTransform="translate(267.866 224.388) rotate(92.129) scale(18.9779 40.4198)">
<stop stop-color="#35C1F1"/>
<stop offset="0.11079" stop-color="#34C1ED"/>
<stop offset="0.23164" stop-color="#2FC2DF"/>
<stop offset="0.31446" stop-color="#2BC3D2"/>
<stop offset="0.67338" stop-color="#36C752"/>
</radialGradient>
<radialGradient id="paint21_radial_172_207828" cx="0" cy="0" r="1" gradientUnits="userSpaceOnUse" gradientTransform="translate(288.232 227.273) rotate(73.6747) scale(9.12542 7.45043)">
<stop stop-color="#66EB6E"/>
<stop offset="1" stop-color="#66EB6E" stop-opacity="0"/>
</radialGradient>
<clipPath id="clip0_172_207828">
<rect width="512" height="256" fill="white"/>
</clipPath>
<clipPath id="clip1_172_207828">
<rect width="512" height="256" fill="white"/>
</clipPath>
<clipPath id="clip2_172_207828">
<rect width="512" height="256" fill="white"/>
</clipPath>
<clipPath id="clip3_172_207828">
<rect width="834" height="48" fill="white" transform="translate(-244 208)"/>
</clipPath>
<clipPath id="clip4_172_207828">
<rect width="16" height="16" fill="white" transform="translate(404 224)"/>
</clipPath>
<clipPath id="clip5_172_207828">
<rect width="16.1" height="16" fill="white" transform="translate(436.015 224)"/>
</clipPath>
<clipPath id="clip6_172_207828">
<rect width="16" height="16" fill="white" transform="translate(460 224)"/>
</clipPath>
<clipPath id="clip7_172_207828">
<rect width="16" height="16" fill="white" transform="translate(460 224)"/>
</clipPath>
<clipPath id="clip8_172_207828">
<rect width="24" height="24" fill="white" transform="translate(12.5 220)"/>
</clipPath>
<clipPath id="clip9_172_207828">
<rect width="16" height="16" fill="white" transform="translate(57.5 224)"/>
</clipPath>
<clipPath id="clip10_172_207828">
<rect width="24" height="24" fill="white" transform="translate(221.5 220)"/>
</clipPath>
<clipPath id="clip11_172_207828">
<rect width="24" height="24" fill="white" transform="translate(265.5 220)"/>
</clipPath>
</defs>
</svg>
